<svg xmlns="http://www.w3.org/2000/svg" xmlns:xlink="http://www.w3.org/1999/xlink" width="80" zoomAndPan="magnify" viewBox="0 0 60 74.999997" height="100" preserveAspectRatio="xMidYMid meet" version="1.0"><defs><clipPath id="782b7346d7"><path d="M 0.742188 3 L 59 3 L 59 72 L 0.742188 72 Z M 0.742188 3 " clip-rule="nonzero"/></clipPath></defs><g clip-path="url(#782b7346d7)"><path fill="#3a84db" d="M 29.496094 3.75 C 27.0625 4.328125 25.058594 6.355469 23.640625 9.640625 C 22.367188 12.621094 21.261719 18.070312 21.261719 21.425781 C 21.261719 21.921875 21.21875 22.320312 21.164062 22.320312 C 21.089844 22.320312 20.691406 22.226562 20.261719 22.113281 C 19.214844 21.839844 16.851562 21.824219 15.648438 22.101562 C 15.121094 22.210938 14.132812 22.527344 13.457031 22.792969 C 10.710938 23.867188 8.261719 24.183594 3.90625 24.074219 L 0.929688 24.003906 L 1.128906 24.363281 C 1.515625 25.082031 2.648438 26.460938 3.535156 27.304688 C 6.113281 29.730469 9.621094 31.207031 13.242188 31.375 C 15.277344 31.46875 15.992188 31.636719 16.480469 32.132812 C 17.023438 32.671875 17.039062 33.59375 16.507812 34.546875 C 14.519531 38.21875 14.261719 38.949219 14.132812 41.292969 C 14.03125 43.515625 14.503906 46.164062 15.492188 48.675781 L 15.894531 49.710938 L 16.007812 48.84375 C 16.164062 47.640625 16.582031 46.621094 17.339844 45.628906 C 17.695312 45.171875 18.011719 44.8125 18.039062 44.839844 C 18.070312 44.867188 17.996094 45.199219 17.882812 45.570312 C 17.566406 46.550781 17.695312 48.207031 18.167969 49.40625 C 18.371094 49.917969 18.699219 50.734375 18.898438 51.214844 C 19.601562 53.023438 19.730469 56.390625 19.171875 59.410156 C 19.058594 60.128906 18.972656 60.722656 19 60.765625 C 19.042969 60.792969 19.5 60.253906 20.046875 59.5625 C 21.207031 58.101562 22.335938 55.988281 22.578125 54.859375 C 22.679688 54.417969 22.792969 54.058594 22.851562 54.058594 C 22.953125 54.058594 23.453125 55.3125 23.710938 56.265625 C 23.8125 56.625 23.867188 57.507812 23.839844 58.335938 C 23.738281 61.6875 23.769531 62.101562 24.097656 63.097656 C 24.683594 64.835938 27.121094 69.320312 27.320312 69 C 27.363281 68.945312 27.433594 68.4375 27.492188 67.882812 C 27.550781 67.34375 27.636719 66.890625 27.707031 66.890625 C 27.847656 66.890625 29.007812 68.585938 29.511719 69.527344 C 29.726562 69.941406 29.984375 70.574219 30.082031 70.960938 L 30.253906 71.652344 L 30.683594 70.738281 C 30.929688 70.242188 31.371094 69.152344 31.671875 68.324219 L 32.21875 66.820312 L 32.359375 67.882812 C 32.445312 68.476562 32.546875 68.988281 32.589844 69.015625 C 32.703125 69.125 34.050781 66.863281 34.851562 65.234375 C 36.070312 62.765625 36.355469 61.261719 36.011719 59.175781 C 35.898438 58.570312 35.898438 57.976562 36.011719 57.246094 C 36.167969 56.128906 36.8125 54.058594 37.015625 54.058594 C 37.070312 54.058594 37.15625 54.265625 37.199219 54.511719 C 37.429688 55.894531 38.945312 58.652344 40.378906 60.265625 L 40.921875 60.886719 L 40.824219 60.265625 C 40.050781 55.601562 40.164062 53.023438 41.265625 50.484375 C 42.183594 48.386719 42.382812 46.925781 41.953125 45.558594 C 41.839844 45.1875 41.738281 44.855469 41.738281 44.828125 C 41.738281 44.648438 42.296875 45.28125 42.757812 45.957031 C 43.386719 46.898438 43.757812 47.875 43.871094 48.953125 L 43.972656 49.710938 L 44.300781 48.882812 C 45.347656 46.21875 45.804688 43.792969 45.707031 41.363281 C 45.605469 39.28125 45.277344 38.050781 44.359375 36.394531 C 43.015625 33.980469 43 33.941406 42.984375 33.222656 C 42.972656 31.980469 43.914062 31.429688 46.09375 31.429688 C 47.222656 31.429688 49.242188 31.097656 50.472656 30.726562 C 53.167969 29.882812 55.742188 28.1875 57.503906 26.074219 C 57.976562 25.523438 58.480469 24.820312 58.636719 24.53125 L 58.921875 23.992188 L 56.015625 24.074219 C 51.820312 24.183594 48.855469 23.8125 46.75 22.914062 C 46.320312 22.734375 45.417969 22.417969 44.746094 22.238281 C 43.273438 21.824219 41.195312 21.769531 39.691406 22.101562 C 39.148438 22.226562 38.6875 22.320312 38.675781 22.320312 C 38.644531 22.320312 38.589844 21.769531 38.546875 21.09375 C 38.386719 18.925781 38.046875 17.726562 37 15.5625 C 36.628906 14.761719 36.210938 13.738281 36.082031 13.285156 C 35.824219 12.304688 35.796875 10.648438 36.054688 10.191406 C 36.527344 9.308594 37.773438 9.019531 39.492188 9.40625 C 40.609375 9.65625 43.316406 10.691406 44.429688 11.296875 C 44.832031 11.519531 45.175781 11.65625 45.175781 11.601562 C 45.175781 11.378906 43.472656 9.367188 42.46875 8.414062 C 39.835938 5.875 36.628906 4.175781 33.578125 3.707031 C 32.347656 3.515625 30.398438 3.542969 29.496094 3.75 Z M 21.964844 31.554688 C 23.839844 32.378906 24.527344 32.464844 30.070312 32.464844 C 35.425781 32.464844 35.910156 32.410156 37.730469 31.636719 C 39.246094 31 39.375 30.972656 39.664062 31.234375 C 39.878906 31.441406 39.890625 31.703125 39.847656 33 C 39.777344 35.085938 39.492188 35.707031 38.417969 36.160156 C 37.488281 36.5625 37.414062 36.660156 37.101562 37.777344 C 36.972656 38.273438 36.628906 39.375 36.339844 40.230469 L 35.839844 41.792969 L 35.007812 41.019531 C 34.09375 40.191406 32.746094 39.488281 31.757812 39.347656 C 31.042969 39.253906 31.015625 39.113281 31.414062 38.230469 C 31.601562 37.859375 31.902344 37.527344 32.289062 37.292969 C 33.003906 36.851562 33.148438 36.519531 33.132812 35.25 C 33.132812 34.574219 33.089844 34.367188 33.019531 34.601562 C 32.5625 36.023438 31.714844 36.644531 30.15625 36.742188 C 28.550781 36.824219 27.519531 36.246094 26.992188 34.933594 L 26.71875 34.257812 L 26.703125 35.25 C 26.703125 36.519531 26.847656 36.851562 27.5625 37.292969 C 27.949219 37.527344 28.25 37.859375 28.4375 38.230469 C 28.835938 39.113281 28.808594 39.210938 27.964844 39.402344 C 26.820312 39.667969 25.773438 40.203125 24.855469 41.03125 L 24.027344 41.761719 L 23.4375 39.941406 C 23.125 38.933594 22.765625 37.777344 22.636719 37.347656 C 22.421875 36.589844 22.394531 36.5625 21.550781 36.203125 C 20.777344 35.886719 20.648438 35.773438 20.375 35.195312 C 19.945312 34.269531 19.816406 31.59375 20.1875 31.25 C 20.519531 30.933594 20.5625 30.945312 21.964844 31.554688 Z M 32.332031 41.335938 C 33.648438 41.96875 34.824219 43.210938 35.640625 44.855469 C 36.585938 46.746094 36.597656 46.964844 35.769531 46.097656 C 35.394531 45.710938 34.792969 45.1875 34.4375 44.921875 L 33.792969 44.46875 L 29.925781 44.480469 C 27.804688 44.496094 26.015625 44.507812 25.945312 44.523438 C 25.886719 44.539062 25.285156 45.046875 24.613281 45.667969 L 23.394531 46.800781 L 23.753906 45.863281 C 24.742188 43.351562 26.359375 41.613281 28.320312 41.003906 C 28.695312 40.878906 29.382812 40.824219 30.15625 40.851562 C 31.214844 40.894531 31.53125 40.964844 32.332031 41.335938 Z M 32.332031 41.335938 " fill-opacity="1" fill-rule="nonzero"/></g></svg>